<svg width="48" height="48" viewBox="0 0 48 48" fill="none" xmlns="http://www.w3.org/2000/svg">
<path d="M2.03354 0.910042C1.88585 0.909475 1.73952 0.938066 1.60297 0.994321C1.46641 1.05058 1.34235 1.13331 1.23792 1.23774C1.13349 1.34217 1.05077 1.46631 0.994514 1.60286C0.938262 1.73941 0.909594 1.88573 0.910165 2.03342V21.0564C0.91068 21.2034 0.940148 21.3488 0.996887 21.4844C1.05363 21.62 1.13652 21.7431 1.24084 21.8467C1.34516 21.9502 1.46886 22.0323 1.60487 22.088C1.74089 22.1438 1.88655 22.1721 2.03354 22.1715H21.0566C21.352 22.1705 21.635 22.0526 21.8439 21.8437C22.0528 21.6348 22.1706 21.3519 22.1717 21.0564V2.03342C22.1722 1.88643 22.1438 1.74081 22.0881 1.60479C22.0324 1.46878 21.9504 1.34503 21.8468 1.2407C21.7433 1.13638 21.6202 1.05352 21.4846 0.996774C21.349 0.940032 21.2035 0.910562 21.0566 0.910042H2.03354ZM3.14865 3.14853H19.9332V19.9331H3.14865V3.14853Z" fill="#15403D"/>
<path d="M27.7636 0.910042C27.6166 0.910562 27.4711 0.940032 27.3355 0.996774C27.1999 1.05352 27.0768 1.13638 26.9733 1.2407C26.8697 1.34503 26.7877 1.46878 26.732 1.60479C26.6763 1.74081 26.6479 1.88643 26.6484 2.03342V21.0564C26.6495 21.3519 26.7673 21.6348 26.9762 21.8437C27.1851 22.0526 27.4681 22.1705 27.7636 22.1715H46.7866C46.9336 22.1721 47.0792 22.1438 47.2152 22.088C47.3513 22.0323 47.475 21.9502 47.5793 21.8467C47.6836 21.7431 47.7665 21.62 47.8232 21.4844C47.88 21.3488 47.9094 21.2034 47.91 21.0564V2.03342C47.9105 1.88573 47.8819 1.73941 47.8256 1.60286C47.7694 1.46631 47.6866 1.34217 47.5822 1.23774C47.4778 1.13331 47.3537 1.05058 47.2171 0.994321C47.0806 0.938067 46.9343 0.909474 46.7866 0.910042H27.7636ZM28.8869 3.14853H45.6715V19.9331H28.8869V3.14853Z" fill="#15403D"/>
<path d="M2.03354 26.6485C1.88655 26.6479 1.74089 26.6763 1.60488 26.732C1.46887 26.7877 1.34518 26.8698 1.24086 26.9734C1.13654 27.0769 1.05364 27.1999 0.996899 27.3355C0.940158 27.4711 0.910685 27.6166 0.910164 27.7636V46.7866C0.9096 46.9343 0.938271 47.0806 0.994526 47.2172C1.05078 47.3537 1.13351 47.4778 1.23793 47.5822C1.34236 47.6866 1.46643 47.7693 1.60298 47.8256C1.73952 47.8819 1.88586 47.9106 2.03354 47.91H21.0566C21.2035 47.9095 21.349 47.88 21.4846 47.8233C21.6202 47.7665 21.7433 47.6837 21.8468 47.5793C21.9504 47.475 22.0324 47.3513 22.0881 47.2153C22.1438 47.0792 22.1722 46.9336 22.1717 46.7866V27.7636C22.1706 27.4682 22.0528 27.1851 21.8439 26.9762C21.635 26.7673 21.352 26.6496 21.0566 26.6485H2.03354ZM3.14865 28.887H19.9332V45.6715H3.14865V28.887Z" fill="#15403D"/>
<path d="M27.7636 26.6485C27.4681 26.6496 27.1851 26.7673 26.9762 26.9762C26.7673 27.1851 26.6495 27.4682 26.6484 27.7636V46.7866C26.6479 46.9336 26.6763 47.0792 26.732 47.2153C26.7878 47.3513 26.8698 47.475 26.9733 47.5793C27.0769 47.6837 27.1999 47.7665 27.3355 47.8233C27.4711 47.88 27.6166 47.9095 27.7636 47.91H46.7866C46.9343 47.9106 47.0806 47.8819 47.2171 47.8256C47.3537 47.7693 47.4778 47.6866 47.5822 47.5822C47.6866 47.4778 47.7693 47.3537 47.8256 47.2172C47.8818 47.0806 47.9105 46.9343 47.91 46.7866V27.7636C47.9094 27.6166 47.88 27.4711 47.8232 27.3355C47.7665 27.1999 47.6836 27.0769 47.5793 26.9734C47.4749 26.8698 47.3512 26.7877 47.2152 26.732C47.0792 26.6763 46.9336 26.6479 46.7866 26.6485H27.7636ZM28.8869 28.887H45.6715V45.6715H28.8869V28.887Z" fill="#15403D"/>
</svg>
