<svg width="49" height="46" viewBox="0 0 49 46" fill="none" xmlns="http://www.w3.org/2000/svg">
<path d="M24.2998 20.1433C21.6401 20.1433 19.3632 19.1963 17.4692 17.3022C15.5752 15.4082 14.6282 13.1313 14.6282 10.4716C14.6282 7.81193 15.5752 5.53506 17.4692 3.64103C19.3632 1.747 21.6401 0.799988 24.2998 0.799988C26.9595 0.799988 29.2364 1.747 31.1304 3.64103C33.0244 5.53506 33.9714 7.81193 33.9714 10.4716C33.9714 13.1313 33.0244 15.4082 31.1304 17.3022C29.2364 19.1963 26.9595 20.1433 24.2998 20.1433ZM0.299805 45.2179V40.5612C0.299805 39.2477 0.70279 38.0089 1.50876 36.8448C2.31473 35.6806 3.40428 34.7701 4.77742 34.1134C8.061 32.5612 11.3297 31.397 14.5834 30.6209C17.8371 29.8448 21.0759 29.4567 24.2998 29.4567C27.5237 29.4567 30.7625 29.8448 34.0162 30.6209C37.27 31.397 40.5386 32.5612 43.8222 34.1134C45.1953 34.7701 46.2849 35.6806 47.0908 36.8448C47.8968 38.0089 48.2998 39.2477 48.2998 40.5612V45.2179H0.299805ZM2.80727 42.7104H45.7923V40.5612C45.7923 39.7254 45.5088 38.9343 44.9416 38.188C44.3744 37.4418 43.5834 36.8 42.5685 36.2627C39.7028 34.8895 36.7271 33.8298 33.6413 33.0836C30.5555 32.3373 27.4417 31.9642 24.2998 31.9642C21.158 31.9642 18.0441 32.3373 14.9583 33.0836C11.8726 33.8298 8.89682 34.8895 6.03115 36.2627C5.01622 36.8 4.22518 37.4418 3.65801 38.188C3.09085 38.9343 2.80727 39.7254 2.80727 40.5612V42.7104ZM24.2998 17.6358C26.27 17.6358 27.9565 16.9343 29.3595 15.5313C30.7625 14.1283 31.464 12.4418 31.464 10.4716C31.464 8.50148 30.7625 6.81491 29.3595 5.41193C27.9565 4.00894 26.27 3.30745 24.2998 3.30745C22.3297 3.30745 20.6431 4.00894 19.2401 5.41193C17.8371 6.81491 17.1356 8.50148 17.1356 10.4716C17.1356 12.4418 17.8371 14.1283 19.2401 15.5313C20.6431 16.9343 22.3297 17.6358 24.2998 17.6358Z" fill="#15403D"/>
</svg>
