<svg width="50" height="50" viewBox="0 0 50 50" fill="none" xmlns="http://www.w3.org/2000/svg">
<path d="M25.0106 31.5705C27.1277 31.5705 28.9242 30.8295 30.3998 29.3475C31.8755 27.8655 32.6134 26.066 32.6134 23.9489C32.6134 21.8317 31.8724 20.0353 30.3904 18.5596C28.9084 17.084 27.1089 16.3461 24.9918 16.3461C22.8747 16.3461 21.0782 17.0871 19.6026 18.5691C18.1269 20.0511 17.389 21.8506 17.389 23.9677C17.389 26.0848 18.13 27.8812 19.612 29.3569C21.094 30.8326 22.8935 31.5705 25.0106 31.5705ZM25.0012 29.5833C23.4387 29.5833 22.1106 29.0364 21.0168 27.9427C19.9231 26.8489 19.3762 25.5208 19.3762 23.9583C19.3762 22.3958 19.9231 21.0677 21.0168 19.9739C22.1106 18.8802 23.4387 18.3333 25.0012 18.3333C26.5637 18.3333 27.8918 18.8802 28.9856 19.9739C30.0793 21.0677 30.6262 22.3958 30.6262 23.9583C30.6262 25.5208 30.0793 26.8489 28.9856 27.9427C27.8918 29.0364 26.5637 29.5833 25.0012 29.5833ZM25.0069 37.5C20.4946 37.5 16.3821 36.272 12.6695 33.8161C8.95684 31.3602 6.17639 28.0742 4.32812 23.9583C6.17639 19.8424 8.95493 16.5564 12.6638 14.1005C16.3725 11.6446 20.4831 10.4166 24.9955 10.4166C29.5078 10.4166 33.6203 11.6446 37.3329 14.1005C41.0456 16.5564 43.826 19.8424 45.6743 23.9583C43.826 28.0742 41.0475 31.3602 37.3386 33.8161C33.6299 36.272 29.5193 37.5 25.0069 37.5ZM25.0012 35.4166C28.9248 35.4166 32.5272 34.3836 35.8085 32.3177C39.0897 30.2517 41.5984 27.4652 43.3345 23.9583C41.5984 20.4513 39.0897 17.6649 35.8085 15.5989C32.5272 13.5329 28.9248 12.5 25.0012 12.5C21.0776 12.5 17.4752 13.5329 14.1939 15.5989C10.9127 17.6649 8.40398 20.4513 6.66786 23.9583C8.40398 27.4652 10.9127 30.2517 14.1939 32.3177C17.4752 34.3836 21.0776 35.4166 25.0012 35.4166Z" fill="#15403D"/>
</svg>
